<svg viewBox="0 0 48 125" xmlns="http://www.w3.org/2000/svg">
  <rect x="19" y="113" width="16" height="7" rx="1.5" fill="#e1e3e1" stroke="#3f4548" stroke-width="1.5"/>
  <polygon points="22,108 32,108 35,113 19,113" fill="#eaebe8" stroke="#3f4548" stroke-width="1.4"/>
  <path d="M25 109 L25 27 Q25 12 39 12" fill="none" stroke="#3a4246" stroke-width="1.8"/>
  <path d="M29 109 L29 28 Q29 16 40 16" fill="none" stroke="#3a4246" stroke-width="1.4"/>
  <line x1="25" y1="48" x2="29" y2="48" stroke="#4b5154" stroke-width="1.2"/>
  <line x1="25" y1="76" x2="29" y2="76" stroke="#4b5154" stroke-width="1.2"/>
  <rect x="24" y="25" width="6" height="7" rx="1" fill="#e2e6e5" stroke="#3f4548" stroke-width="1.3"/>
  <line x1="39" y1="12" x2="39" y2="19" stroke="#3a4246" stroke-width="1.5"/>
  <path d="M31 19 Q39 14 47 19 L44 25 L34 25 Z" fill="#e8ece9" stroke="#3f4548" stroke-width="1.5"/>
  <ellipse cx="39" cy="25" rx="5" ry="2.2" fill="#f7f4df" stroke="#4b5154" stroke-width="1.2"/>
  <circle cx="27" cy="23" r="2.5" fill="#e5e8e6" stroke="#3f4548" stroke-width="1.2"/>
  <line x1="15" y1="121" x2="40" y2="121" stroke="#4a4a4a" stroke-width="1.4"/>
</svg>
