<svg viewBox="0 0 140 90" xmlns="http://www.w3.org/2000/svg">
  <polygon points="38,12 116,12 136,27 136,82 38,82" fill="#e8e6df" stroke="#454545" stroke-width="1.6"/>
  <path d="M5 82 L5 49 Q5 14 40 14 Q75 14 75 49 L75 82 Z" fill="#eeece5" stroke="#3d3d3d" stroke-width="1.7"/>
  <path d="M18 82 L18 50 Q18 27 40 27 Q62 27 62 50 L62 82 Z" fill="#fafaf7" stroke="#3d3d3d" stroke-width="1.6"/>
  <line x1="5" y1="49" x2="18" y2="50" stroke="#555" stroke-width="1.2"/>
  <line x1="75" y1="49" x2="136" y2="49" stroke="#555" stroke-width="1.2"/>
  <line x1="40" y1="14" x2="40" y2="27" stroke="#555" stroke-width="1.2"/>
  <line x1="10" y1="30" x2="23" y2="36" stroke="#555" stroke-width="1.2"/>
  <line x1="57" y1="22" x2="54" y2="34" stroke="#555" stroke-width="1.2"/>
  <line x1="6" y1="62" x2="18" y2="62" stroke="#555" stroke-width="1.2"/>
  <line x1="62" y1="62" x2="75" y2="62" stroke="#555" stroke-width="1.2"/>
  <line x1="82" y1="26" x2="125" y2="26" stroke="#555" stroke-width="1.2"/>
  <line x1="75" y1="39" x2="136" y2="39" stroke="#555" stroke-width="1.2"/>
  <line x1="87" y1="49" x2="87" y2="82" stroke="#555" stroke-width="1.2"/>
  <line x1="112" y1="49" x2="112" y2="82" stroke="#555" stroke-width="1.2"/>
  <line x1="75" y1="66" x2="136" y2="66" stroke="#555" stroke-width="1.2"/>
  <line x1="1" y1="83" x2="139" y2="83" stroke="#454545" stroke-width="1.5"/>
  <line x1="24" y1="88" x2="130" y2="88" stroke="#555" stroke-width="1.2"/>
</svg>
